<svg width="500" height="501" xmlns="http://www.w3.org/2000/svg">
    <path d="M100 344.063H25c-13.805 0-25 13.966-25 31.187v93.563C0 486.033 11.195 500 25 500h75c13.805 0 25-13.966 25-31.188V375.25c0-17.221-11.195-31.188-25-31.188zm-18.75-77.97h150v46.782h37.5v-46.781h150v46.781h37.5v-56.128c0-20.632-13.46-37.434-30.008-37.434H268.75v-62.375H300c13.805 0 25-13.967 25-31.188V32.188C325 14.966 313.805 1 300 1H200c-13.805 0-25 13.966-25 31.188v93.562c0 17.221 11.195 31.188 25 31.188h31.25v62.375H73.758c-16.547 0-30.008 16.792-30.008 37.434v56.128h37.5v-46.781zm206.25 77.97h-75c-13.805 0-25 13.966-25 31.187v93.563c0 17.22 11.195 31.187 25 31.187h75c13.805 0 25-13.966 25-31.188V375.25c0-17.221-11.195-31.188-25-31.188zm187.5 0h-75c-13.805 0-25 13.966-25 31.187v93.563c0 17.22 11.195 31.187 25 31.187h75c13.805 0 25-13.966 25-31.188V375.25c0-17.221-11.195-31.188-25-31.188z" fill="#FFF"/>
</svg>
